:SAMPLES-PER-SECOND 30
:FULLY-SPECIFIED
:DEGREES
92
root  -0.572395 37.7639 1.03159 -46.7924 -84.8481 40.5286
RightUpLeg  -22.6669 -12.0689 -0.460344
RightLeg  17.5855 -1.75799 -0.660998
RightFoot  2.08825 0.436403 -3.73278
RightToes  -2.32831e-009 0 -3.6325e-017
Spine  5.06299 -0.362118 0.59994
Spine1  9.09685 -0.240089 -0.650357
HEad  -19.3657 -7.05732 -2.96043
LeftShoulder1  -0.374592 4.52214 -30.6386
LeftArm  12.0004 -9.81868 -51.3632
LeftForeArm  22.7939 -30.8233 -5.46163
LeftHand  0.00639926 9.80144 1.55858
RightShoulder  -0.676356 -5.50082 27.1895
RightArm  -11.0704 -3.43169 43.7444
RightForeArm  14.2333 59.7813 18.391
RightHand  -0.598866 11.0927 -4.61909
LeftUpLeg  17.1574 3.61521 -5.34467
LeftLeg  19.0139 -4.80096 -1.47817
LeftFoot  -22.0906 0.396437 2.84538
LeftToes  8.91272e-011 -1.70619e-011 7.36378e-012
93
root  -2.22941 37.5464 1.10093 -35.5117 -86.7008 29.0711
RightUpLeg  -23.4304 -9.41968 0.844795
RightLeg  24.0095 -2.62579 -1.54214
RightFoot  2.19419 0.513784 -4.22747
RightToes  -2.32831e-009 0 -3.6325e-017
Spine  5.11543 -0.787168 3.87668
Spine1  8.88415 -0.416218 -0.719635
HEad  -19.7542 -5.99199 -3.81428
LeftShoulder1  -0.387503 4.54373 -31.1337
LeftArm  16.0191 -9.69154 -52.9707
LeftForeArm  23.6138 -32.8361 -5.90789
LeftHand  -0.0288317 8.21452 0.639412
RightShoulder  -0.641063 -5.41741 26.791
RightArm  -12.7012 -0.951764 42.7781
RightForeArm  17.2219 62.9648 20.9762
RightHand  -0.508781 10.9458 -4.02141
LeftUpLeg  16.9332 4.64698 -2.43217
LeftLeg  25.5933 -7.0753 -3.42391
LeftFoot  -21.4408 0.043039 -0.92141
LeftToes  8.91272e-011 -1.70619e-011 7.36378e-012
94
root  -3.84265 37.307 1.13846 0.362244 -88.5377 -6.91464
RightUpLeg  -23.5746 -5.98377 2.71507
RightLeg  29.5349 -4.24188 -2.83912
RightFoot  -0.878576 0.469213 -5.17203
RightToes  -2.32831e-009 0 -3.6325e-017
Spine  5.09503 -1.20489 7.2397
Spine1  8.99769 -0.48944 -0.575884
HEad  -19.826 -4.50736 -4.8014
LeftShoulder1  -0.298925 4.31162 -30.8121
LeftArm  19.9179 -9.20105 -55.1667
LeftForeArm  24.3194 -34.4713 -6.28443
LeftHand  -0.0601327 7.77759 -0.788181
RightShoulder  -0.542689 -5.16414 25.8894
RightArm  -13.7312 2.14628 42.3138
RightForeArm  19.0646 64.9132 22.9719
RightHand  -0.50268 10.8474 -4.0013
LeftUpLeg  13.7412 6.50738 1.4529
LeftLeg  36.9459 -9.28019 -7.07439
LeftFoot  -16.5471 -0.145423 -6.69292
LeftToes  8.91272e-011 -1.70619e-011 7.36378e-012
95
root  -5.34066 37.0932 1.14999 59.9364 -87.8363 -66.0314
RightUpLeg  -23.6903 -3.90746 4.56781
RightLeg  33.8217 -5.63295 -4.30174
RightFoot  -4.59118 0.28388 -5.32955
RightToes  -2.32831e-009 0 -3.6325e-017
Spine  5.08709 -1.83427 9.14538
Spine1  8.59476 -1.19001 1.28094
HEad  -19.3045 -3.91467 -5.32062
LeftShoulder1  -0.132126 3.86817 -30.212
LeftArm  24.0575 -8.81507 -57.0163
LeftForeArm  24.7891 -36.2309 -6.72629
LeftHand  -0.0704437 7.34255 -1.66588
RightShoulder  -0.454231 -4.9314 24.9642
RightArm  -14.581 5.41228 41.5337
RightForeArm  21.6865 66.984 25.4462
RightHand  -0.585995 10.6951 -4.63549
LeftUpLeg  6.86357 6.03326 3.94979
LeftLeg  50.3008 -7.65864 -9.16211
LeftFoot  -3.76201 0.800037 -12.2889
LeftToes  8.91272e-011 -1.70619e-011 7.36378e-012
96
root  -6.73117 36.9014 1.21388 85.2791 -86.1003 -91.3001
RightUpLeg  -22.8665 -2.33683 6.54307
RightLeg  36.8469 -6.13167 -5.18588
RightFoot  -7.76265 0.106413 -5.00428
RightToes  -2.32831e-009 0 -3.6325e-017
Spine  6.21744 -2.47516 12.0118
Spine1  7.75308 -1.52487 1.89388
HEad  -19.7438 -2.63376 -5.72484
LeftShoulder1  -0.0623218 3.67568 -30.0704
LeftArm  27.9236 -10.0264 -58.0633
LeftForeArm  25.5064 -38.2796 -7.25312
LeftHand  -0.0886152 6.81854 -3.74837
RightShoulder  -0.429077 -4.86692 24.5574
RightArm  -15.5617 9.14659 40.1775
RightForeArm  25.0326 69.4132 29.0282
RightHand  -0.509187 11.4362 -3.91742
LeftUpLeg  -1.12571 4.99228 5.22687
LeftLeg  62.3431 -3.91597 -7.53319
LeftFoot  11.2422 2.18145 -11.339
LeftToes  8.91272e-011 -1.70619e-011 7.36378e-012
97
root  -8.16177 36.8408 1.32324 109.031 -84.6683 -115.424
RightUpLeg  -20.8183 -0.197275 7.6685
RightLeg  38.6669 -6.05814 -5.46627
RightFoot  -10.8135 -0.0545918 -4.07092
RightToes  -2.32831e-009 0 -3.6325e-017
Spine  7.04213 -2.73309 13.8108
Spine1  8.06557 -1.61122 2.38615
HEad  -21.2166 -1.16807 -6.43594
LeftShoulder1  0.0790906 3.28328 -29.6884
LeftArm  29.3666 -11.757 -59.1809
LeftForeArm  25.8363 -40.0896 -7.76865
LeftHand  -0.0755214 6.54424 -3.54632
RightShoulder  -0.359699 -4.68646 23.4141
RightArm  -17.2212 13.4076 39.2777
RightForeArm  29.6581 71.6308 33.1787
RightHand  -0.403046 10.821 -3.29573
LeftUpLeg  -7.31229 5.26433 5.67415
LeftLeg  70.3398 -2.34805 -6.58244
LeftFoot  11.9771 1.44589 -7.22237
LeftToes  8.91272e-011 -1.70619e-011 7.36378e-012
